<svg width="1072" height="659" xmlns="http://www.w3.org/2000/svg"><g><path d="M-32.302605947479606,-88.90171880833805L-95.72260131128132,419.3709158152342L-36.08419932425022,70.27111172676086Z" fill="#ffffff" stroke="#ffffff" fill-opacity="1" stroke-opacity="1"/><path d="M-32.302605947479606,-88.90171880833805L-36.08419932425022,70.27111172676086L90.4926257673651,-46.71336312778294Z" fill="#fdfdfe" stroke="#fdfdfe" fill-opacity="1" stroke-opacity="1"/><path d="M-32.302605947479606,-88.90171880833805L90.4926257673651,-46.71336312778294L278.55466827750206,-79.03920963406563Z" fill="#f8f7fa" stroke="#f8f7fa" fill-opacity="1" stroke-opacity="1"/><path d="M-32.302605947479606,-88.90171880833805L278.55466827750206,-79.03920963406563L655.0595769938082,-125.44370306655765Z" fill="#e5e5f1" stroke="#e5e5f1" fill-opacity="1" stroke-opacity="1"/><path d="M90.4926257673651,-46.71336312778294L-36.08419932425022,70.27111172676086L78.33939087577164,125.91740392148495Z" fill="#fbfbfd" stroke="#fbfbfd" fill-opacity="1" stroke-opacity="1"/><path d="M90.4926257673651,-46.71336312778294L78.33939087577164,125.91740392148495L273.24377755634487,126.57098287716508Z" fill="#f5f4f9" stroke="#f5f4f9" fill-opacity="1" stroke-opacity="1"/><path d="M90.4926257673651,-46.71336312778294L273.24377755634487,126.57098287716508L278.55466827750206,-79.03920963406563Z" fill="#efeff6" stroke="#efeff6" fill-opacity="1" stroke-opacity="1"/><path d="M278.55466827750206,-79.03920963406563L273.24377755634487,126.57098287716508L380.57852586731315,21.80322744883597Z" fill="#e4e4f1" stroke="#e4e4f1" fill-opacity="1" stroke-opacity="1"/><path d="M278.55466827750206,-79.03920963406563L380.57852586731315,21.80322744883597L396.4107438828796,-24.91966623812914Z" fill="#dedfee" stroke="#dedfee" fill-opacity="1" stroke-opacity="1"/><path d="M278.55466827750206,-79.03920963406563L396.4107438828796,-24.91966623812914L655.0595769938082,-125.44370306655765Z" fill="#d3d2e7" stroke="#d3d2e7" fill-opacity="1" stroke-opacity="1"/><path d="M396.4107438828796,-24.91966623812914L380.57852586731315,21.80322744883597L527.5835768692195,-27.310983818024397Z" fill="#d4d3e7" stroke="#d4d3e7" fill-opacity="1" stroke-opacity="1"/><path d="M396.4107438828796,-24.91966623812914L527.5835768692195,-27.310983818024397L655.0595769938082,-125.44370306655765Z" fill="#c8c7e1" stroke="#c8c7e1" fill-opacity="1" stroke-opacity="1"/><path d="M527.5835768692195,-27.310983818024397L380.57852586731315,21.80322744883597L582.9589443281293,30.264987079426646Z" fill="#cccae3" stroke="#cccae3" fill-opacity="1" stroke-opacity="1"/><path d="M527.5835768692195,-27.310983818024397L582.9589443281293,30.264987079426646L655.0595769938082,-125.44370306655765Z" fill="#c1bfdd" stroke="#c1bfdd" fill-opacity="1" stroke-opacity="1"/><path d="M655.0595769938082,-125.44370306655765L582.9589443281293,30.264987079426646L772.5193365756422,28.661253824830055Z" fill="#b9b0d6" stroke="#b9b0d6" fill-opacity="1" stroke-opacity="1"/><path d="M655.0595769938082,-125.44370306655765L772.5193365756422,28.661253824830055L797.9720897879452,-38.60167924314737Z" fill="#b2a3cf" stroke="#b2a3cf" fill-opacity="1" stroke-opacity="1"/><path d="M655.0595769938082,-125.44370306655765L797.9720897879452,-38.60167924314737L919.4579666946083,-29.251063289120793Z" fill="#ae9bcb" stroke="#ae9bcb" fill-opacity="1" stroke-opacity="1"/><path d="M655.0595769938082,-125.44370306655765L919.4579666946083,-29.251063289120793L1175.9178820531815,-134.93114897981286Z" fill="#a286c1" stroke="#a286c1" fill-opacity="1" stroke-opacity="1"/><path d="M797.9720897879452,-38.60167924314737L772.5193365756422,28.661253824830055L920.2107337955385,49.272756641730666Z" fill="#aa94c8" stroke="#aa94c8" fill-opacity="1" stroke-opacity="1"/><path d="M797.9720897879452,-38.60167924314737L920.2107337955385,49.272756641730666L919.4579666946083,-29.251063289120793Z" fill="#a68cc4" stroke="#a68cc4" fill-opacity="1" stroke-opacity="1"/><path d="M919.4579666946083,-29.251063289120793L920.2107337955385,49.272756641730666L1155.9790566936135,101.58701690845191Z" fill="#9b80bb" stroke="#9b80bb" fill-opacity="1" stroke-opacity="1"/><path d="M919.4579666946083,-29.251063289120793L1155.9790566936135,101.58701690845191L1175.9178820531815,-134.93114897981286Z" fill="#9480b4" stroke="#9480b4" fill-opacity="1" stroke-opacity="1"/><path d="M1175.9178820531815,-134.93114897981286L1155.9790566936135,101.58701690845191L1283.905985020101,-84.53357943333685Z" fill="#8980ab" stroke="#8980ab" fill-opacity="1" stroke-opacity="1"/><path d="M1283.905985020101,-84.53357943333685L1155.9790566936135,101.58701690845191L1243.0478254985064,128.53747478686273Z" fill="#8780a9" stroke="#8780a9" fill-opacity="1" stroke-opacity="1"/><path d="M1283.905985020101,-84.53357943333685L1243.0478254985064,128.53747478686273L1254.4299787469208,207.2285079024732Z" fill="#8480a7" stroke="#8480a7" fill-opacity="1" stroke-opacity="1"/><path d="M1283.905985020101,-84.53357943333685L1254.4299787469208,207.2285079024732L1296.937233991921,474.079356752336Z" fill="#7875a6" stroke="#7875a6" fill-opacity="1" stroke-opacity="1"/><path d="M-36.08419932425022,70.27111172676086L-95.72260131128132,419.3709158152342L-36.96396326646209,224.14435484446585Z" fill="#ebebfd" stroke="#ebebfd" fill-opacity="1" stroke-opacity="1"/><path d="M-36.08419932425022,70.27111172676086L-36.96396326646209,224.14435484446585L43.58824471011758,181.2498350534588Z" fill="#fcfbff" stroke="#fcfbff" fill-opacity="1" stroke-opacity="1"/><path d="M-36.08419932425022,70.27111172676086L43.58824471011758,181.2498350534588L78.33939087577164,125.91740392148495Z" fill="#fcfcfd" stroke="#fcfcfd" fill-opacity="1" stroke-opacity="1"/><path d="M78.33939087577164,125.91740392148495L43.58824471011758,181.2498350534588L206.91520233638585,236.3481912855059Z" fill="#f0f0fb" stroke="#f0f0fb" fill-opacity="1" stroke-opacity="1"/><path d="M78.33939087577164,125.91740392148495L206.91520233638585,236.3481912855059L273.24377755634487,126.57098287716508Z" fill="#eeedf7" stroke="#eeedf7" fill-opacity="1" stroke-opacity="1"/><path d="M273.24377755634487,126.57098287716508L206.91520233638585,236.3481912855059L371.2564667221159,221.52006788179278Z" fill="#ddddf2" stroke="#ddddf2" fill-opacity="1" stroke-opacity="1"/><path d="M273.24377755634487,126.57098287716508L371.2564667221159,221.52006788179278L380.57852586731315,21.80322744883597Z" fill="#e0e0ef" stroke="#e0e0ef" fill-opacity="1" stroke-opacity="1"/><path d="M380.57852586731315,21.80322744883597L371.2564667221159,221.52006788179278L535.3888504765928,212.88509191945195Z" fill="#d4d3e8" stroke="#d4d3e8" fill-opacity="1" stroke-opacity="1"/><path d="M380.57852586731315,21.80322744883597L535.3888504765928,212.88509191945195L582.9589443281293,30.264987079426646Z" fill="#cccae2" stroke="#cccae2" fill-opacity="1" stroke-opacity="1"/><path d="M582.9589443281293,30.264987079426646L535.3888504765928,212.88509191945195L680.9658641461283,128.22986989282072Z" fill="#bfbddc" stroke="#bfbddc" fill-opacity="1" stroke-opacity="1"/><path d="M582.9589443281293,30.264987079426646L680.9658641461283,128.22986989282072L772.5193365756422,28.661253824830055Z" fill="#b8afd5" stroke="#b8afd5" fill-opacity="1" stroke-opacity="1"/><path d="M680.9658641461283,128.22986989282072L535.3888504765928,212.88509191945195L697.3342520277947,216.09425271861255Z" fill="#b3aed9" stroke="#b3aed9" fill-opacity="1" stroke-opacity="1"/><path d="M680.9658641461283,128.22986989282072L697.3342520277947,216.09425271861255L824.0499772131443,274.0961575694382Z" fill="#a699d0" stroke="#a699d0" fill-opacity="1" stroke-opacity="1"/><path d="M680.9658641461283,128.22986989282072L824.0499772131443,274.0961575694382L772.5193365756422,28.661253824830055Z" fill="#b1a0ce" stroke="#b1a0ce" fill-opacity="1" stroke-opacity="1"/><path d="M772.5193365756422,28.661253824830055L824.0499772131443,274.0961575694382L920.2107337955385,49.272756641730666Z" fill="#a992c7" stroke="#a992c7" fill-opacity="1" stroke-opacity="1"/><path d="M920.2107337955385,49.272756641730666L824.0499772131443,274.0961575694382L1003.938950356096,199.27793224342167Z" fill="#9c80c1" stroke="#9c80c1" fill-opacity="1" stroke-opacity="1"/><path d="M920.2107337955385,49.272756641730666L1003.938950356096,199.27793224342167L1155.9790566936135,101.58701690845191Z" fill="#9980b9" stroke="#9980b9" fill-opacity="1" stroke-opacity="1"/><path d="M1155.9790566936135,101.58701690845191L1003.938950356096,199.27793224342167L1159.7021126467735,233.4568476676941Z" fill="#8b79b3" stroke="#8b79b3" fill-opacity="1" stroke-opacity="1"/><path d="M1155.9790566936135,101.58701690845191L1159.7021126467735,233.4568476676941L1243.0478254985064,128.53747478686273Z" fill="#897ead" stroke="#897ead" fill-opacity="1" stroke-opacity="1"/><path d="M1243.0478254985064,128.53747478686273L1159.7021126467735,233.4568476676941L1254.4299787469208,207.2285079024732Z" fill="#7f77aa" stroke="#7f77aa" fill-opacity="1" stroke-opacity="1"/><path d="M-36.96396326646209,224.14435484446585L-95.72260131128132,419.3709158152342L21.102336728945374,349.03075729496777Z" fill="#d4d3f3" stroke="#d4d3f3" fill-opacity="1" stroke-opacity="1"/><path d="M-36.96396326646209,224.14435484446585L21.102336728945374,349.03075729496777L43.58824471011758,181.2498350534588Z" fill="#e6e5fa" stroke="#e6e5fa" fill-opacity="1" stroke-opacity="1"/><path d="M43.58824471011758,181.2498350534588L21.102336728945374,349.03075729496777L206.91520233638585,236.3481912855059Z" fill="#e0dff7" stroke="#e0dff7" fill-opacity="1" stroke-opacity="1"/><path d="M206.91520233638585,236.3481912855059L21.102336728945374,349.03075729496777L279.65711566619575,371.52720325626433Z" fill="#cbc9ed" stroke="#cbc9ed" fill-opacity="1" stroke-opacity="1"/><path d="M206.91520233638585,236.3481912855059L279.65711566619575,371.52720325626433L371.2564667221159,221.52006788179278Z" fill="#c9c8ec" stroke="#c9c8ec" fill-opacity="1" stroke-opacity="1"/><path d="M371.2564667221159,221.52006788179278L279.65711566619575,371.52720325626433L415.50782239995897,407.7119753882289Z" fill="#b2b1e1" stroke="#b2b1e1" fill-opacity="1" stroke-opacity="1"/><path d="M371.2564667221159,221.52006788179278L415.50782239995897,407.7119753882289L535.3888504765928,212.88509191945195Z" fill="#b5b2e0" stroke="#b5b2e0" fill-opacity="1" stroke-opacity="1"/><path d="M535.3888504765928,212.88509191945195L415.50782239995897,407.7119753882289L575.5978011153638,369.59195922128856Z" fill="#a09cd5" stroke="#a09cd5" fill-opacity="1" stroke-opacity="1"/><path d="M535.3888504765928,212.88509191945195L575.5978011153638,369.59195922128856L628.3583758212626,332.62363356538117Z" fill="#9d9ad4" stroke="#9d9ad4" fill-opacity="1" stroke-opacity="1"/><path d="M535.3888504765928,212.88509191945195L628.3583758212626,332.62363356538117L697.3342520277947,216.09425271861255Z" fill="#a5a1d7" stroke="#a5a1d7" fill-opacity="1" stroke-opacity="1"/><path d="M697.3342520277947,216.09425271861255L628.3583758212626,332.62363356538117L816.8158025108278,338.8000227883458Z" fill="#9384c9" stroke="#9384c9" fill-opacity="1" stroke-opacity="1"/><path d="M697.3342520277947,216.09425271861255L816.8158025108278,338.8000227883458L824.0499772131443,274.0961575694382Z" fill="#917ec6" stroke="#917ec6" fill-opacity="1" stroke-opacity="1"/><path d="M824.0499772131443,274.0961575694382L816.8158025108278,338.8000227883458L1034.2812136933208,372.30235126800835Z" fill="#7b5eb7" stroke="#7b5eb7" fill-opacity="1" stroke-opacity="1"/><path d="M824.0499772131443,274.0961575694382L1034.2812136933208,372.30235126800835L1003.938950356096,199.27793224342167Z" fill="#805fb7" stroke="#805fb7" fill-opacity="1" stroke-opacity="1"/><path d="M1003.938950356096,199.27793224342167L1034.2812136933208,372.30235126800835L1159.7021126467735,233.4568476676941Z" fill="#7a63b0" stroke="#7a63b0" fill-opacity="1" stroke-opacity="1"/><path d="M1159.7021126467735,233.4568476676941L1034.2812136933208,372.30235126800835L1159.8957287706435,336.5166395623237Z" fill="#6a57a7" stroke="#6a57a7" fill-opacity="1" stroke-opacity="1"/><path d="M1159.7021126467735,233.4568476676941L1159.8957287706435,336.5166395623237L1263.0908625852317,324.5581508707255Z" fill="#675ba4" stroke="#675ba4" fill-opacity="1" stroke-opacity="1"/><path d="M1159.7021126467735,233.4568476676941L1263.0908625852317,324.5581508707255L1254.4299787469208,207.2285079024732Z" fill="#6f67a6" stroke="#6f67a6" fill-opacity="1" stroke-opacity="1"/><path d="M1254.4299787469208,207.2285079024732L1263.0908625852317,324.5581508707255L1296.937233991921,474.079356752336Z" fill="#575299" stroke="#575299" fill-opacity="1" stroke-opacity="1"/><path d="M-95.72260131128132,419.3709158152342L-63.114160895347595,659.0073154494166L-66.32871265523136,555.3776604775339Z" fill="#ac8dd0" stroke="#ac8dd0" fill-opacity="1" stroke-opacity="1"/><path d="M-95.72260131128132,419.3709158152342L-66.32871265523136,555.3776604775339L56.67230159975588,546.9887569639832Z" fill="#b399d6" stroke="#b399d6" fill-opacity="1" stroke-opacity="1"/><path d="M-95.72260131128132,419.3709158152342L56.67230159975588,546.9887569639832L21.102336728945374,349.03075729496777Z" fill="#beafe0" stroke="#beafe0" fill-opacity="1" stroke-opacity="1"/><path d="M21.102336728945374,349.03075729496777L56.67230159975588,546.9887569639832L250.63810528256,525.3902787342668Z" fill="#b19bd7" stroke="#b19bd7" fill-opacity="1" stroke-opacity="1"/><path d="M21.102336728945374,349.03075729496777L250.63810528256,525.3902787342668L279.65711566619575,371.52720325626433Z" fill="#b6aade" stroke="#b6aade" fill-opacity="1" stroke-opacity="1"/><path d="M279.65711566619575,371.52720325626433L250.63810528256,525.3902787342668L325.6152804661542,522.8643711749464Z" fill="#a08cce" stroke="#a08cce" fill-opacity="1" stroke-opacity="1"/><path d="M279.65711566619575,371.52720325626433L325.6152804661542,522.8643711749464L415.50782239995897,407.7119753882289Z" fill="#a093d1" stroke="#a093d1" fill-opacity="1" stroke-opacity="1"/><path d="M415.50782239995897,407.7119753882289L325.6152804661542,522.8643711749464L481.46738961338997,536.6827942617238Z" fill="#8e76c3" stroke="#8e76c3" fill-opacity="1" stroke-opacity="1"/><path d="M415.50782239995897,407.7119753882289L481.46738961338997,536.6827942617238L575.5978011153638,369.59195922128856Z" fill="#8c7cc5" stroke="#8c7cc5" fill-opacity="1" stroke-opacity="1"/><path d="M575.5978011153638,369.59195922128856L481.46738961338997,536.6827942617238L667.1333301253617,532.2551196534187Z" fill="#7b64b9" stroke="#7b64b9" fill-opacity="1" stroke-opacity="1"/><path d="M575.5978011153638,369.59195922128856L667.1333301253617,532.2551196534187L628.3583758212626,332.62363356538117Z" fill="#8274c1" stroke="#8274c1" fill-opacity="1" stroke-opacity="1"/><path d="M628.3583758212626,332.62363356538117L667.1333301253617,532.2551196534187L816.8158025108278,338.8000227883458Z" fill="#7c69bb" stroke="#7c69bb" fill-opacity="1" stroke-opacity="1"/><path d="M816.8158025108278,338.8000227883458L667.1333301253617,532.2551196534187L803.5481719113886,579.721789425239Z" fill="#6841a7" stroke="#6841a7" fill-opacity="1" stroke-opacity="1"/><path d="M816.8158025108278,338.8000227883458L803.5481719113886,579.721789425239L943.848000029102,567.9036676045507Z" fill="#5d2d9e" stroke="#5d2d9e" fill-opacity="1" stroke-opacity="1"/><path d="M816.8158025108278,338.8000227883458L943.848000029102,567.9036676045507L1034.2812136933208,372.30235126800835Z" fill="#6338a4" stroke="#6338a4" fill-opacity="1" stroke-opacity="1"/><path d="M1034.2812136933208,372.30235126800835L943.848000029102,567.9036676045507L1147.6459526270628,579.4410586450249Z" fill="#4b198e" stroke="#4b198e" fill-opacity="1" stroke-opacity="1"/><path d="M1034.2812136933208,372.30235126800835L1147.6459526270628,579.4410586450249L1159.8957287706435,336.5166395623237Z" fill="#533496" stroke="#533496" fill-opacity="1" stroke-opacity="1"/><path d="M1159.8957287706435,336.5166395623237L1147.6459526270628,579.4410586450249L1296.937233991921,474.079356752336Z" fill="#442889" stroke="#442889" fill-opacity="1" stroke-opacity="1"/><path d="M1159.8957287706435,336.5166395623237L1296.937233991921,474.079356752336L1263.0908625852317,324.5581508707255Z" fill="#504696" stroke="#504696" fill-opacity="1" stroke-opacity="1"/><path d="M-66.32871265523136,555.3776604775339L-63.114160895347595,659.0073154494166L56.67230159975588,546.9887569639832Z" fill="#a57fca" stroke="#a57fca" fill-opacity="1" stroke-opacity="1"/><path d="M56.67230159975588,546.9887569639832L-63.114160895347595,659.0073154494166L31.882122438400984,684.5224736630917Z" fill="#9c7dc2" stroke="#9c7dc2" fill-opacity="1" stroke-opacity="1"/><path d="M56.67230159975588,546.9887569639832L31.882122438400984,684.5224736630917L215.7902191299945,636.3062769826502Z" fill="#9878c0" stroke="#9878c0" fill-opacity="1" stroke-opacity="1"/><path d="M56.67230159975588,546.9887569639832L215.7902191299945,636.3062769826502L250.63810528256,525.3902787342668Z" fill="#9b77c5" stroke="#9b77c5" fill-opacity="1" stroke-opacity="1"/><path d="M250.63810528256,525.3902787342668L215.7902191299945,636.3062769826502L325.6152804661542,522.8643711749464Z" fill="#9472c2" stroke="#9472c2" fill-opacity="1" stroke-opacity="1"/><path d="M325.6152804661542,522.8643711749464L215.7902191299945,636.3062769826502L376.4842355065048,662.6196245290339Z" fill="#8765b9" stroke="#8765b9" fill-opacity="1" stroke-opacity="1"/><path d="M325.6152804661542,522.8643711749464L376.4842355065048,662.6196245290339L481.46738961338997,536.6827942617238Z" fill="#815db7" stroke="#815db7" fill-opacity="1" stroke-opacity="1"/><path d="M481.46738961338997,536.6827942617238L376.4842355065048,662.6196245290339L493.3171821478754,716.1246740072966Z" fill="#6f51a9" stroke="#6f51a9" fill-opacity="1" stroke-opacity="1"/><path d="M481.46738961338997,536.6827942617238L493.3171821478754,716.1246740072966L667.1333301253617,532.2551196534187Z" fill="#6a45a9" stroke="#6a45a9" fill-opacity="1" stroke-opacity="1"/><path d="M667.1333301253617,532.2551196534187L493.3171821478754,716.1246740072966L695.4828115738928,694.0293001849204Z" fill="#593a9d" stroke="#593a9d" fill-opacity="1" stroke-opacity="1"/><path d="M667.1333301253617,532.2551196534187L695.4828115738928,694.0293001849204L803.5481719113886,579.721789425239Z" fill="#572799" stroke="#572799" fill-opacity="1" stroke-opacity="1"/><path d="M803.5481719113886,579.721789425239L695.4828115738928,694.0293001849204L791.9381516799331,730.3599642310292Z" fill="#48208c" stroke="#48208c" fill-opacity="1" stroke-opacity="1"/><path d="M803.5481719113886,579.721789425239L791.9381516799331,730.3599642310292L944.2940192297101,722.0443884842098Z" fill="#3f1284" stroke="#3f1284" fill-opacity="1" stroke-opacity="1"/><path d="M803.5481719113886,579.721789425239L944.2940192297101,722.0443884842098L943.848000029102,567.9036676045507Z" fill="#440988" stroke="#440988" fill-opacity="1" stroke-opacity="1"/><path d="M943.848000029102,567.9036676045507L944.2940192297101,722.0443884842098L1078.2573608122766,727.0102118700743Z" fill="#33007a" stroke="#33007a" fill-opacity="1" stroke-opacity="1"/><path d="M943.848000029102,567.9036676045507L1078.2573608122766,727.0102118700743L1147.6459526270628,579.4410586450249Z" fill="#36007c" stroke="#36007c" fill-opacity="1" stroke-opacity="1"/><path d="M1147.6459526270628,579.4410586450249L1078.2573608122766,727.0102118700743L1244.220430618152,702.7569099795073Z" fill="#25006e" stroke="#25006e" fill-opacity="1" stroke-opacity="1"/><path d="M1147.6459526270628,579.4410586450249L1244.220430618152,702.7569099795073L1296.937233991921,474.079356752336Z" fill="#2d0074" stroke="#2d0074" fill-opacity="1" stroke-opacity="1"/><path d="M1296.937233991921,474.079356752336L1244.220430618152,702.7569099795073L1241.947961077094,845.6340200733393Z" fill="#1b0065" stroke="#1b0065" fill-opacity="1" stroke-opacity="1"/><path d="M-63.114160895347595,659.0073154494166L-17.41799918934703,870.3097756113857L47.33246893621981,817.495215497911Z" fill="#837eae" stroke="#837eae" fill-opacity="1" stroke-opacity="1"/><path d="M-63.114160895347595,659.0073154494166L47.33246893621981,817.495215497911L31.882122438400984,684.5224736630917Z" fill="#8c7db6" stroke="#8c7db6" fill-opacity="1" stroke-opacity="1"/><path d="M31.882122438400984,684.5224736630917L47.33246893621981,817.495215497911L246.13835597410798,808.743856754154Z" fill="#7e77ab" stroke="#7e77ab" fill-opacity="1" stroke-opacity="1"/><path d="M31.882122438400984,684.5224736630917L246.13835597410798,808.743856754154L215.7902191299945,636.3062769826502Z" fill="#8473b1" stroke="#8473b1" fill-opacity="1" stroke-opacity="1"/><path d="M215.7902191299945,636.3062769826502L246.13835597410798,808.743856754154L376.4842355065048,662.6196245290339Z" fill="#7a68ad" stroke="#7a68ad" fill-opacity="1" stroke-opacity="1"/><path d="M376.4842355065048,662.6196245290339L246.13835597410798,808.743856754154L316.38436932116747,872.097612703219Z" fill="#6864a0" stroke="#6864a0" fill-opacity="1" stroke-opacity="1"/><path d="M376.4842355065048,662.6196245290339L316.38436932116747,872.097612703219L480.7822607830167,816.7951123975217Z" fill="#5d5a99" stroke="#5d5a99" fill-opacity="1" stroke-opacity="1"/><path d="M376.4842355065048,662.6196245290339L480.7822607830167,816.7951123975217L493.3171821478754,716.1246740072966Z" fill="#5f519c" stroke="#5f519c" fill-opacity="1" stroke-opacity="1"/><path d="M493.3171821478754,716.1246740072966L480.7822607830167,816.7951123975217L630.238355146721,824.093987038359Z" fill="#4b468f" stroke="#4b468f" fill-opacity="1" stroke-opacity="1"/><path d="M493.3171821478754,716.1246740072966L630.238355146721,824.093987038359L695.4828115738928,694.0293001849204Z" fill="#4a3d90" stroke="#4a3d90" fill-opacity="1" stroke-opacity="1"/><path d="M695.4828115738928,694.0293001849204L630.238355146721,824.093987038359L791.9381516799331,730.3599642310292Z" fill="#402a86" stroke="#402a86" fill-opacity="1" stroke-opacity="1"/><path d="M791.9381516799331,730.3599642310292L630.238355146721,824.093987038359L827.1121274493635,779.5441993698478Z" fill="#37237e" stroke="#37237e" fill-opacity="1" stroke-opacity="1"/><path d="M791.9381516799331,730.3599642310292L827.1121274493635,779.5441993698478L944.2940192297101,722.0443884842098Z" fill="#33107a" stroke="#33107a" fill-opacity="1" stroke-opacity="1"/><path d="M944.2940192297101,722.0443884842098L827.1121274493635,779.5441993698478L1016.0615890938789,784.041582942009Z" fill="#290472" stroke="#290472" fill-opacity="1" stroke-opacity="1"/><path d="M944.2940192297101,722.0443884842098L1016.0615890938789,784.041582942009L1078.2573608122766,727.0102118700743Z" fill="#25006e" stroke="#25006e" fill-opacity="1" stroke-opacity="1"/><path d="M1078.2573608122766,727.0102118700743L1016.0615890938789,784.041582942009L1151.8882874585688,860.244082370773Z" fill="#170062" stroke="#170062" fill-opacity="1" stroke-opacity="1"/><path d="M1078.2573608122766,727.0102118700743L1151.8882874585688,860.244082370773L1244.220430618152,702.7569099795073Z" fill="#150060" stroke="#150060" fill-opacity="1" stroke-opacity="1"/><path d="M1244.220430618152,702.7569099795073L1151.8882874585688,860.244082370773L1241.947961077094,845.6340200733393Z" fill="#090057" stroke="#090057" fill-opacity="1" stroke-opacity="1"/><path d="M-17.41799918934703,870.3097756113857L316.38436932116747,872.097612703219L47.33246893621981,817.495215497911Z" fill="#78779f" stroke="#78779f" fill-opacity="1" stroke-opacity="1"/><path d="M47.33246893621981,817.495215497911L316.38436932116747,872.097612703219L246.13835597410798,808.743856754154Z" fill="#70709e" stroke="#70709e" fill-opacity="1" stroke-opacity="1"/><path d="M316.38436932116747,872.097612703219L1151.8882874585688,860.244082370773L630.238355146721,824.093987038359Z" fill="#372c78" stroke="#372c78" fill-opacity="1" stroke-opacity="1"/><path d="M316.38436932116747,872.097612703219L630.238355146721,824.093987038359L480.7822607830167,816.7951123975217Z" fill="#4f4d8b" stroke="#4f4d8b" fill-opacity="1" stroke-opacity="1"/><path d="M630.238355146721,824.093987038359L1151.8882874585688,860.244082370773L827.1121274493635,779.5441993698478Z" fill="#270e6e" stroke="#270e6e" fill-opacity="1" stroke-opacity="1"/><path d="M827.1121274493635,779.5441993698478L1151.8882874585688,860.244082370773L1016.0615890938789,784.041582942009Z" fill="#1c0066" stroke="#1c0066" fill-opacity="1" stroke-opacity="1"/></g></svg>